name rise37.2698peak67.6939fall79.5734.mot
datacolumns 19
datarows 30
range 19.02659600000000 19.07492600000000
endheader
time	ground_force1_vx	ground_force1_vy	ground_force1_vz	ground_force1_px	ground_force1_py	ground_force1_pz	ground_force2_vx	ground_force2_vy	ground_force2_vz	ground_force2_px	ground_force2_py	ground_force2_pz	ground_torque1_x	ground_torque1_y	ground_torque1_z	ground_torque2_x	ground_torque2_y	ground_torque2_z	
19.02659600000000	14.91810700000000	698.59673699999996	36.26568000000000	0.24750100000000	0.00000000000000	0.09919500000000	0.00000000000000	0.00000000000000	0.00000000000000	0.00000000000000	0.00000000000000	0.00000000000000	0.00000000000000	15.49836600000000	0.00000000000000	0.00000000000000	0.00000000000000	0.00000000000000	
19.02826500000000	14.49661600000000	699.03625899999997	36.21521100000000	0.24678800000000	0.00000000000000	0.09916200000000	0.00000000000000	0.00000000000000	0.00000000000000	0.00000000000000	0.00000000000000	0.00000000000000	0.00000000000000	15.50735900000000	0.00000000000000	0.00000000000000	0.00000000000000	0.00000000000000	
19.02993400000000	14.06681600000000	699.53480500000001	36.16756800000000	0.24604600000000	0.00000000000000	0.09913200000000	0.00000000000000	0.00000000000000	0.00000000000000	0.00000000000000	0.00000000000000	0.00000000000000	0.00000000000000	15.51910800000000	0.00000000000000	0.00000000000000	0.00000000000000	0.00000000000000	
19.03159100000000	13.62870700000000	700.09168599999998	36.12265100000000	0.24527600000000	0.00000000000000	0.09910500000000	0.00000000000000	0.00000000000000	0.00000000000000	0.00000000000000	0.00000000000000	0.00000000000000	0.00000000000000	15.53356200000000	0.00000000000000	0.00000000000000	0.00000000000000	0.00000000000000	
19.03326200000000	13.18232500000000	700.70612900000003	36.08036700000000	0.24447800000000	0.00000000000000	0.09908200000000	0.00000000000000	0.00000000000000	0.00000000000000	0.00000000000000	0.00000000000000	0.00000000000000	0.00000000000000	15.55067500000000	0.00000000000000	0.00000000000000	0.00000000000000	0.00000000000000	
19.03492500000000	12.72773000000000	701.37728100000004	36.04063900000000	0.24365100000000	0.00000000000000	0.09906100000000	0.00000000000000	0.00000000000000	0.00000000000000	0.00000000000000	0.00000000000000	0.00000000000000	0.00000000000000	15.57040700000000	0.00000000000000	0.00000000000000	0.00000000000000	0.00000000000000	
19.03661400000000	12.26501800000000	702.10420799999997	36.00339800000000	0.24279600000000	0.00000000000000	0.09904400000000	0.00000000000000	0.00000000000000	0.00000000000000	0.00000000000000	0.00000000000000	0.00000000000000	0.00000000000000	15.59272300000000	0.00000000000000	0.00000000000000	0.00000000000000	0.00000000000000	
19.03826100000000	11.79431100000000	702.88589899999999	35.96858700000000	0.24191400000000	0.00000000000000	0.09903000000000	0.00000000000000	0.00000000000000	0.00000000000000	0.00000000000000	0.00000000000000	0.00000000000000	0.00000000000000	15.61759300000000	0.00000000000000	0.00000000000000	0.00000000000000	0.00000000000000	
19.03992700000000	11.31576000000000	703.72126700000001	35.93616500000000	0.24100600000000	0.00000000000000	0.09901900000000	0.00000000000000	0.00000000000000	0.00000000000000	0.00000000000000	0.00000000000000	0.00000000000000	0.00000000000000	15.64499100000000	0.00000000000000	0.00000000000000	0.00000000000000	0.00000000000000	
19.04159500000000	10.82954300000000	704.60914900000000	35.90609800000000	0.24007100000000	0.00000000000000	0.09901000000000	0.00000000000000	0.00000000000000	0.00000000000000	0.00000000000000	0.00000000000000	0.00000000000000	0.00000000000000	15.67489400000000	0.00000000000000	0.00000000000000	0.00000000000000	0.00000000000000	
19.04325900000000	10.33586700000000	705.54831500000000	35.87837000000000	0.23911200000000	0.00000000000000	0.09900500000000	0.00000000000000	0.00000000000000	0.00000000000000	0.00000000000000	0.00000000000000	0.00000000000000	0.00000000000000	15.70728500000000	0.00000000000000	0.00000000000000	0.00000000000000	0.00000000000000	
19.04492500000000	9.83496000000000	706.53746300000000	35.85297200000000	0.23813000000000	0.00000000000000	0.09900300000000	0.00000000000000	0.00000000000000	0.00000000000000	0.00000000000000	0.00000000000000	0.00000000000000	0.00000000000000	15.74214700000000	0.00000000000000	0.00000000000000	0.00000000000000	0.00000000000000	
19.04659600000000	9.32707800000000	707.57522800000004	35.82991100000000	0.23712500000000	0.00000000000000	0.09900300000000	0.00000000000000	0.00000000000000	0.00000000000000	0.00000000000000	0.00000000000000	0.00000000000000	0.00000000000000	15.77946700000000	0.00000000000000	0.00000000000000	0.00000000000000	0.00000000000000	
19.04826600000000	8.81249700000000	708.66018399999996	35.80920600000000	0.23610000000000	0.00000000000000	0.09900500000000	0.00000000000000	0.00000000000000	0.00000000000000	0.00000000000000	0.00000000000000	0.00000000000000	0.00000000000000	15.81923400000000	0.00000000000000	0.00000000000000	0.00000000000000	0.00000000000000	
19.04992600000000	8.29151500000000	709.79084499999999	35.79088700000000	0.23505700000000	0.00000000000000	0.09901100000000	0.00000000000000	0.00000000000000	0.00000000000000	0.00000000000000	0.00000000000000	0.00000000000000	0.00000000000000	15.86143900000000	0.00000000000000	0.00000000000000	0.00000000000000	0.00000000000000	
19.05159900000000	7.76445100000000	710.96567300000004	35.77499900000000	0.23399600000000	0.00000000000000	0.09901800000000	0.00000000000000	0.00000000000000	0.00000000000000	0.00000000000000	0.00000000000000	0.00000000000000	0.00000000000000	15.90607200000000	0.00000000000000	0.00000000000000	0.00000000000000	0.00000000000000	
19.05325800000000	7.23164000000000	712.18307700000003	35.76159600000000	0.23292000000000	0.00000000000000	0.09902700000000	0.00000000000000	0.00000000000000	0.00000000000000	0.00000000000000	0.00000000000000	0.00000000000000	0.00000000000000	15.95312600000000	0.00000000000000	0.00000000000000	0.00000000000000	0.00000000000000	
19.05492500000000	6.69343500000000	713.44142299999999	35.75074800000000	0.23183100000000	0.00000000000000	0.09903900000000	0.00000000000000	0.00000000000000	0.00000000000000	0.00000000000000	0.00000000000000	0.00000000000000	0.00000000000000	16.00259000000000	0.00000000000000	0.00000000000000	0.00000000000000	0.00000000000000	
19.05660700000000	6.15020200000000	714.73903399999995	35.74253300000000	0.23073000000000	0.00000000000000	0.09905200000000	0.00000000000000	0.00000000000000	0.00000000000000	0.00000000000000	0.00000000000000	0.00000000000000	0.00000000000000	16.05445600000000	0.00000000000000	0.00000000000000	0.00000000000000	0.00000000000000	
19.05826000000000	5.60232300000000	716.07419600000003	35.73704400000000	0.22962000000000	0.00000000000000	0.09906700000000	0.00000000000000	0.00000000000000	0.00000000000000	0.00000000000000	0.00000000000000	0.00000000000000	0.00000000000000	16.10871300000000	0.00000000000000	0.00000000000000	0.00000000000000	0.00000000000000	
19.05992900000000	5.05018800000000	717.44515999999999	35.73438300000000	0.22850300000000	0.00000000000000	0.09908400000000	0.00000000000000	0.00000000000000	0.00000000000000	0.00000000000000	0.00000000000000	0.00000000000000	0.00000000000000	16.16534700000000	0.00000000000000	0.00000000000000	0.00000000000000	0.00000000000000	
19.06159400000000	4.49419800000000	718.85015199999998	35.73466500000000	0.22738000000000	0.00000000000000	0.09910100000000	0.00000000000000	0.00000000000000	0.00000000000000	0.00000000000000	0.00000000000000	0.00000000000000	0.00000000000000	16.22434500000000	0.00000000000000	0.00000000000000	0.00000000000000	0.00000000000000	
19.06325800000000	3.93476400000000	720.28737200000000	35.73801500000000	0.22625400000000	0.00000000000000	0.09912000000000	0.00000000000000	0.00000000000000	0.00000000000000	0.00000000000000	0.00000000000000	0.00000000000000	0.00000000000000	16.28568900000000	0.00000000000000	0.00000000000000	0.00000000000000	0.00000000000000	
19.06492500000000	3.37229900000000	721.75500099999999	35.74456800000000	0.22512600000000	0.00000000000000	0.09914000000000	0.00000000000000	0.00000000000000	0.00000000000000	0.00000000000000	0.00000000000000	0.00000000000000	0.00000000000000	16.34935700000000	0.00000000000000	0.00000000000000	0.00000000000000	0.00000000000000	
19.06661300000000	2.80722300000000	723.25120800000002	35.75446900000000	0.22399900000000	0.00000000000000	0.09916100000000	0.00000000000000	0.00000000000000	0.00000000000000	0.00000000000000	0.00000000000000	0.00000000000000	0.00000000000000	16.41532500000000	0.00000000000000	0.00000000000000	0.00000000000000	0.00000000000000	
19.06825900000000	2.23995900000000	724.77414899999997	35.76787200000000	0.22287400000000	0.00000000000000	0.09918300000000	0.00000000000000	0.00000000000000	0.00000000000000	0.00000000000000	0.00000000000000	0.00000000000000	0.00000000000000	16.48356500000000	0.00000000000000	0.00000000000000	0.00000000000000	0.00000000000000	
19.06992500000000	1.67092800000000	726.32197399999995	35.78494200000000	0.22175400000000	0.00000000000000	0.09920500000000	0.00000000000000	0.00000000000000	0.00000000000000	0.00000000000000	0.00000000000000	0.00000000000000	0.00000000000000	16.55404400000000	0.00000000000000	0.00000000000000	0.00000000000000	0.00000000000000	
19.07161000000000	1.10055400000000	727.89283599999999	35.80584900000000	0.22063800000000	0.00000000000000	0.09922700000000	0.00000000000000	0.00000000000000	0.00000000000000	0.00000000000000	0.00000000000000	0.00000000000000	0.00000000000000	16.62672400000000	0.00000000000000	0.00000000000000	0.00000000000000	0.00000000000000	
19.07326700000000	0.52925600000000	729.48488699999996	35.83077300000000	0.21953100000000	0.00000000000000	0.09925000000000	0.00000000000000	0.00000000000000	0.00000000000000	0.00000000000000	0.00000000000000	0.00000000000000	0.00000000000000	16.70156400000000	0.00000000000000	0.00000000000000	0.00000000000000	0.00000000000000	
19.07492600000000	-0.04255000000000	731.09628699999996	35.85989900000000	0.21843200000000	0.00000000000000	0.09927300000000	0.00000000000000	0.00000000000000	0.00000000000000	0.00000000000000	0.00000000000000	0.00000000000000	0.00000000000000	16.77851600000000	0.00000000000000	0.00000000000000	0.00000000000000	0.00000000000000	
